<mxfile host="app.diagrams.net" agent="Mozilla/5.0 (Macintosh; Intel Mac OS X 10_15_7) AppleWebKit/537.36 (KHTML, like Gecko) Chrome/127.0.0.0 Safari/537.36 OPR/113.0.0.0" version="24.9.0">
  <diagram name="Strona-1" id="2rtsJcyfHSiPZ5xmWJv0">
    <mxGraphModel>
      <root>
        <mxCell id="0" />
        <mxCell id="1" parent="0" />
        <mxCell id="2" value="Database" style="whiteSpace=wrap;strokeWidth=2;" vertex="1" parent="1">
          <mxGeometry x="615" y="12" width="175" height="119" as="geometry" />
        </mxCell>
        <mxCell id="3" value="Cloud" style="whiteSpace=wrap;strokeWidth=2;" vertex="1" parent="1">
          <mxGeometry x="380" y="8" width="185" height="126" as="geometry" />
        </mxCell>
        <mxCell id="4" value="Gateway" style="whiteSpace=wrap;strokeWidth=2;" vertex="1" parent="1">
          <mxGeometry x="203" y="19" width="128" height="154" as="geometry" />
        </mxCell>
        <mxCell id="5" value="Device" style="whiteSpace=wrap;strokeWidth=2;" vertex="1" parent="1">
          <mxGeometry x="8" y="193" width="557" height="217" as="geometry" />
        </mxCell>
        <mxCell id="6" value="Sensor 1" style="whiteSpace=wrap;strokeWidth=2;" vertex="1" parent="1">
          <mxGeometry x="33" y="228" width="120" height="49" as="geometry" />
        </mxCell>
        <mxCell id="7" value="Sensor 2" style="whiteSpace=wrap;strokeWidth=2;" vertex="1" parent="1">
          <mxGeometry x="33" y="327" width="120" height="49" as="geometry" />
        </mxCell>
        <mxCell id="8" value="Actuator 1" style="whiteSpace=wrap;strokeWidth=2;" vertex="1" parent="1">
          <mxGeometry x="405" y="228" width="135" height="49" as="geometry" />
        </mxCell>
        <mxCell id="9" value="Actuator 2" style="whiteSpace=wrap;strokeWidth=2;" vertex="1" parent="1">
          <mxGeometry x="405" y="327" width="135" height="49" as="geometry" />
        </mxCell>
        <mxCell id="10" value="Gateway" style="ellipse;aspect=fixed;strokeWidth=2;whiteSpace=wrap;" vertex="1" parent="1">
          <mxGeometry x="228" y="61" width="78" height="78" as="geometry" />
        </mxCell>
        <mxCell id="11" value="Cloud" style="ellipse;aspect=fixed;strokeWidth=2;whiteSpace=wrap;" vertex="1" parent="1">
          <mxGeometry x="445" y="43" width="56" height="56" as="geometry" />
        </mxCell>
        <mxCell id="12" value="Database" style="whiteSpace=wrap;strokeWidth=2;" vertex="1" parent="1">
          <mxGeometry x="640" y="47" width="125" height="49" as="geometry" />
        </mxCell>
        <mxCell id="13" value="" style="curved=1;startArrow=none;endArrow=block;exitX=1;exitY=0.5;entryX=0.29;entryY=0.99;" edge="1" parent="1" source="6" target="10">
          <mxGeometry relative="1" as="geometry">
            <Array as="points">
              <mxPoint x="203" y="252" />
            </Array>
          </mxGeometry>
        </mxCell>
        <mxCell id="14" value="" style="curved=1;startArrow=none;endArrow=block;exitX=1;exitY=0.49;entryX=0.37;entryY=0.99;" edge="1" parent="1" source="7" target="10">
          <mxGeometry relative="1" as="geometry">
            <Array as="points">
              <mxPoint x="203" y="351" />
            </Array>
          </mxGeometry>
        </mxCell>
        <mxCell id="15" value="" style="curved=1;startArrow=none;endArrow=block;exitX=0.99;exitY=0.27;entryX=0;entryY=0.5;" edge="1" parent="1" source="10" target="11">
          <mxGeometry relative="1" as="geometry">
            <Array as="points">
              <mxPoint x="330" y="71" />
            </Array>
          </mxGeometry>
        </mxCell>
        <mxCell id="16" value="" style="curved=1;startArrow=none;endArrow=block;exitX=0.99;exitY=0.42;entryX=0;entryY=0.21;" edge="1" parent="1" source="10" target="8">
          <mxGeometry relative="1" as="geometry">
            <Array as="points">
              <mxPoint x="330" y="91" />
              <mxPoint x="355" y="233" />
              <mxPoint x="380" y="233" />
            </Array>
          </mxGeometry>
        </mxCell>
        <mxCell id="17" value="" style="curved=1;startArrow=none;endArrow=block;exitX=0.99;exitY=0.5;entryX=0;entryY=0.49;" edge="1" parent="1" source="11" target="12">
          <mxGeometry relative="1" as="geometry">
            <Array as="points" />
          </mxGeometry>
        </mxCell>
        <mxCell id="18" value="" style="curved=1;startArrow=none;endArrow=block;exitX=0.08;exitY=0.99;entryX=0.99;entryY=0.62;" edge="1" parent="1" source="8" target="10">
          <mxGeometry relative="1" as="geometry">
            <Array as="points">
              <mxPoint x="380" y="292" />
              <mxPoint x="355" y="292" />
              <mxPoint x="330" y="116" />
            </Array>
          </mxGeometry>
        </mxCell>
        <mxCell id="19" value="" style="curved=1;startArrow=none;endArrow=block;exitX=0.99;exitY=0.78;entryX=0;entryY=0.49;" edge="1" parent="1" source="10" target="9">
          <mxGeometry relative="1" as="geometry">
            <Array as="points">
              <mxPoint x="330" y="136" />
              <mxPoint x="355" y="351" />
            </Array>
          </mxGeometry>
        </mxCell>
      </root>
    </mxGraphModel>
  </diagram>
</mxfile>
